<svg xmlns="http://www.w3.org/2000/svg" viewBox="0 0 1377.61 1432.8"><defs><style>.cls-1,.cls-2{fill:#3c3c3a;}.cls-2{fill-rule:evenodd;}</style></defs><g id="Layer_2" data-name="Layer 2"><g id="Layer_1-2" data-name="Layer 1"><path class="cls-1" d="M688.81,0c190.2,0,362.4,77.1,487.05,201.75s201.75,296.85,201.75,487.06-77.1,362.4-201.75,487.05-296.85,201.75-487,201.75a689.71,689.71,0,0,1-170.32-21.25,682.76,682.76,0,0,1-144.34-54.83L3.56,1432.8l106.69-370.26A687.09,687.09,0,0,1,0,688.81C0,498.6,77.1,326.4,201.75,201.75S498.6,0,688.81,0Zm434,254.82c-111.06-111.06-264.5-179.76-434-179.76s-322.93,68.7-434,179.76-179.76,264.5-179.76,434A609.21,609.21,0,0,0,181.9,1035l9.87,14.43L115.66,1313.6l264.59-93.72,14.7,8a612.26,612.26,0,0,0,293.86,74.64c169.48,0,322.92-68.69,434-179.76s179.76-264.5,179.76-434-68.69-322.93-179.76-434Z"/><path class="cls-2" d="M583.08,1001.8l23.53-147.41H728L704.51,1001.8H814.89l23.53-147.41H955.58L975.81,744H856l17.62-110.39H999.74L1020,523.23H891.26L913,386.85H802.64L780.87,523.23H659.45l21.76-136.38H570.83L549.06,523.23H423.88L403.65,633.61h127.8L513.84,744H379.73L359.5,854.39H496.22L472.7,1001.8ZM624.22,744l17.62-110.39H763.26L745.65,744Z"/></g></g></svg>